<svg xmlns="http://www.w3.org/2000/svg" viewBox="0 0 500 500"><g id="freepik--background-complete--inject-419"><rect y="382.4" width="500" height="0.25" style="fill:#ebebeb"></rect><rect x="396.83" y="398.49" width="53.07" height="0.25" style="fill:#ebebeb"></rect><rect x="272.56" y="395.36" width="58.66" height="0.25" style="fill:#ebebeb"></rect><rect x="380.2" y="393.92" width="19.19" height="0.25" style="fill:#ebebeb"></rect><rect x="100.47" y="390.89" width="43.19" height="0.25" style="fill:#ebebeb"></rect><rect x="79.46" y="390.89" width="15.44" height="0.25" style="fill:#ebebeb"></rect><rect x="131.47" y="395.11" width="54.2" height="0.25" style="fill:#ebebeb"></rect><path d="M237,337.8H43.91a5.71,5.71,0,0,1-5.7-5.71V60.66A5.71,5.71,0,0,1,43.91,55H237a5.71,5.71,0,0,1,5.71,5.71V332.09A5.71,5.71,0,0,1,237,337.8ZM43.91,55.2a5.46,5.46,0,0,0-5.45,5.46V332.09a5.46,5.46,0,0,0,5.45,5.46H237a5.47,5.47,0,0,0,5.46-5.46V60.66A5.47,5.47,0,0,0,237,55.2Z" style="fill:#ebebeb"></path><path d="M453.31,337.8H260.21a5.72,5.72,0,0,1-5.71-5.71V60.66A5.72,5.72,0,0,1,260.21,55h193.1A5.71,5.71,0,0,1,459,60.66V332.09A5.71,5.71,0,0,1,453.31,337.8ZM260.21,55.2a5.47,5.47,0,0,0-5.46,5.46V332.09a5.47,5.47,0,0,0,5.46,5.46h193.1a5.47,5.47,0,0,0,5.46-5.46V60.66a5.47,5.47,0,0,0-5.46-5.46Z" style="fill:#ebebeb"></path><rect x="295.91" y="68" width="142.16" height="235.31" transform="translate(733.99 371.3) rotate(180)" style="fill:#e6e6e6"></rect><rect x="288.24" y="68" width="148.81" height="235.31" transform="translate(725.28 371.3) rotate(180)" style="fill:#f0f0f0"></rect><rect x="295.91" y="303.3" width="142.16" height="6.55" transform="translate(733.99 613.15) rotate(180)" style="fill:#e6e6e6"></rect><rect x="275.45" y="303.3" width="148.81" height="6.55" transform="translate(699.7 613.15) rotate(180)" style="fill:#f0f0f0"></rect><rect x="255.74" y="121.99" width="213.81" height="127.31" transform="translate(548.29 -176.99) rotate(90)" style="fill:#fafafa"></rect><polygon points="405.81 292.55 392.63 78.74 347.56 78.74 360.74 292.55 405.81 292.55" style="fill:#fff"></polygon><rect x="192.76" y="184.97" width="213.81" height="1.36" transform="translate(485.32 -114.02) rotate(90)" style="fill:#e6e6e6"></rect><g style="opacity:0.4"><polygon points="285.69 80.87 430.41 80.87 431.4 76.65 286.68 76.65 285.69 80.87" style="fill:#e0e0e0"></polygon><polygon points="285.69 87.91 430.41 87.91 431.4 83.68 286.68 83.68 285.69 87.91" style="fill:#e0e0e0"></polygon><polygon points="285.69 94.94 430.41 94.94 431.4 90.71 286.68 90.71 285.69 94.94" style="fill:#e0e0e0"></polygon><polygon points="285.69 101.97 430.41 101.97 431.4 97.74 286.68 97.74 285.69 101.97" style="fill:#e0e0e0"></polygon><polygon points="285.69 109 430.41 109 431.4 104.78 286.68 104.78 285.69 109" style="fill:#e0e0e0"></polygon><polygon points="285.69 116.03 430.41 116.03 431.4 111.81 286.68 111.81 285.69 116.03" style="fill:#e0e0e0"></polygon><polygon points="285.69 123.06 430.41 123.06 431.4 118.84 286.68 118.84 285.69 123.06" style="fill:#e0e0e0"></polygon><polygon points="285.69 130.09 430.41 130.09 431.4 125.87 286.68 125.87 285.69 130.09" style="fill:#e0e0e0"></polygon><polygon points="285.69 137.12 430.41 137.12 431.4 132.9 286.68 132.9 285.69 137.12" style="fill:#e0e0e0"></polygon><polygon points="285.69 144.16 430.41 144.16 431.4 139.93 286.68 139.93 285.69 144.16" style="fill:#e0e0e0"></polygon><polygon points="285.69 151.19 430.41 151.19 431.4 146.96 286.68 146.96 285.69 151.19" style="fill:#e0e0e0"></polygon><polygon points="285.69 158.22 430.41 158.22 431.4 153.99 286.68 153.99 285.69 158.22" style="fill:#e0e0e0"></polygon><polygon points="285.69 165.25 430.41 165.25 431.4 161.03 286.68 161.03 285.69 165.25" style="fill:#e0e0e0"></polygon><polygon points="285.69 172.28 430.41 172.28 431.4 168.06 286.68 168.06 285.69 172.28" style="fill:#e0e0e0"></polygon><polygon points="285.69 179.31 430.41 179.31 431.4 175.09 286.68 175.09 285.69 179.31" style="fill:#e0e0e0"></polygon><polygon points="285.69 186.34 430.41 186.34 431.4 182.12 286.68 182.12 285.69 186.34" style="fill:#e0e0e0"></polygon><polygon points="285.69 193.37 430.41 193.37 431.4 189.15 286.68 189.15 285.69 193.37" style="fill:#e0e0e0"></polygon><polygon points="285.69 200.41 430.41 200.41 431.4 196.18 286.68 196.18 285.69 200.41" style="fill:#e0e0e0"></polygon></g><rect x="70.22" y="76.86" width="151.73" height="69.56" transform="translate(292.17 223.28) rotate(180)" style="fill:#e6e6e6"></rect><rect x="62.04" y="76.86" width="158.37" height="69.56" transform="translate(282.44 223.28) rotate(180)" style="fill:#f0f0f0"></rect><rect x="113.75" y="39.77" width="54.94" height="143.75" transform="translate(252.86 -29.58) rotate(90)" style="fill:#fff"></rect><polygon points="128.67 122.7 129.19 124 154.8 124 154.8 99.28 128.67 122.7" style="fill:#ebebeb"></polygon><polygon points="153.81 122.7 128.67 122.7 129.66 99.28 154.8 99.28 153.81 122.7" style="fill:#fafafa"></polygon><polygon points="171.58 122.7 172.1 124 197.71 124 197.71 99.28 171.58 122.7" style="fill:#ebebeb"></polygon><polygon points="196.72 122.7 171.58 122.7 172.57 99.28 197.71 99.28 196.72 122.7" style="fill:#fafafa"></polygon><polygon points="85.76 122.7 86.28 124 111.89 124 111.89 99.28 85.76 122.7" style="fill:#ebebeb"></polygon><polygon points="110.9 122.7 85.76 122.7 86.75 99.28 111.89 99.28 110.9 122.7" style="fill:#fafafa"></polygon><rect x="42.33" y="111.19" width="54.94" height="0.9" transform="translate(181.44 41.84) rotate(90)" style="fill:#e6e6e6"></rect><rect x="234" y="259.1" width="28.59" height="117.74" transform="translate(496.58 635.94) rotate(180)" style="fill:#f0f0f0"></rect><rect x="56.72" y="376.84" width="200.37" height="5.56" transform="translate(313.82 759.24) rotate(180)" style="fill:#f0f0f0"></rect><rect x="51.23" y="259.1" width="182.76" height="117.74" style="fill:#f5f5f5"></rect><rect x="62.47" y="303.59" width="160.29" height="28.76" style="fill:#f0f0f0"></rect><rect x="62.47" y="337.6" width="160.29" height="28.76" style="fill:#f0f0f0"></rect><path d="M100.77,306.74h83.69a2,2,0,0,0,2-2h0a2,2,0,0,0-2-2H100.77a2,2,0,0,0-2,2h0A2,2,0,0,0,100.77,306.74Z" style="fill:#f5f5f5"></path><rect x="62.47" y="269.59" width="160.29" height="28.76" style="fill:#f0f0f0"></rect><path d="M100.77,272.74h83.69a2,2,0,0,0,2-2h0a2,2,0,0,0-2-2H100.77a2,2,0,0,0-2,2h0A2,2,0,0,0,100.77,272.74Z" style="fill:#f5f5f5"></path><path d="M100.77,340.75h83.69a2,2,0,0,0,2-2h0a2,2,0,0,0-2-2H100.77a2,2,0,0,0-2,2h0A2,2,0,0,0,100.77,340.75Z" style="fill:#f5f5f5"></path><rect x="47.42" y="249.43" width="186.57" height="9.67" transform="translate(281.42 508.53) rotate(180)" style="fill:#f0f0f0"></rect><rect x="234" y="249.43" width="32.58" height="9.67" style="fill:#e6e6e6"></rect><path d="M101.05,231c0,10.19-9,18.44-20,18.44s-20-8.25-20-18.44c0-6,3.11-13.26,8-18.22h24C97.94,217.73,101.05,225,101.05,231Z" style="fill:#e6e6e6"></path><path d="M128.71,234.1c0,8.47-7.44,15.33-16.6,15.33s-16.6-6.86-16.6-15.33c0-5,2.58-11,6.61-15.13h20C126.12,223.08,128.71,229.11,128.71,234.1Z" style="fill:#f0f0f0"></path><polygon points="211.93 249.28 232.69 249.28 230.11 168.89 211.93 168.89 211.93 249.28" style="fill:#f0f0f0"></polygon><polygon points="147.87 249.28 226.44 249.28 232.69 156.9 154.12 156.9 147.87 249.28" style="fill:#e6e6e6"></polygon><polygon points="146.69 249.28 225.26 249.28 231.51 156.9 152.94 156.9 146.69 249.28" style="fill:#f0f0f0"></polygon><path d="M218.58,238.13,223,168.52a3.8,3.8,0,0,0-3.79-4H163.4a3.79,3.79,0,0,0-3.78,3.55l-4.39,69.61a3.79,3.79,0,0,0,3.78,4H214.8A3.79,3.79,0,0,0,218.58,238.13Z" style="fill:#fff"></path></g><g id="freepik--Shadow--inject-419"><ellipse id="freepik--path--inject-419" cx="250" cy="416.24" rx="193.89" ry="11.32" style="fill:#f5f5f5"></ellipse></g><g id="freepik--character-1--inject-419"><path d="M107.74,139.66c-6.14,8.43-10,20.92,9.68,22.06l11.87-19.46C126.11,133.23,113,132.41,107.74,139.66Z" style="fill:#e0e0e0"></path><path d="M116.48,161.86a1.14,1.14,0,0,1-1.12-.91c0-.13-2.44-12.84,12.49-20.2a1.14,1.14,0,1,1,1,2.05c-13.36,6.59-11.28,17.58-11.26,17.69a1.14,1.14,0,0,1-.89,1.35A.93.93,0,0,1,116.48,161.86Z" style="fill:#FFCC35"></path><path d="M138.53,140.9c6.73-2,12.07,2.52,16,8.63,5.09,7.94-3.72,13.45-3.72,13.45Z" style="fill:#e0e0e0"></path><path d="M123.1,146c-8.5,9.26-12.59,24.39,7.45,31.32a48.06,48.06,0,0,0,8-18.12Z" style="fill:#e0e0e0"></path><path d="M158,249.6s0,34.53-2.79,81c-4.63,45.5-2.44,79.84-2.44,79.84h-7.26s-17.48-54.76-11.14-81.43c-7-34.21-4.3-78.53-4.3-78.53Z" style="fill:#7f3e3b"></path><path d="M163.17,197.2l1,1.66,1.09,1.75c.73,1.17,1.49,2.33,2.27,3.47,1.55,2.28,3.15,4.52,4.83,6.65a52.56,52.56,0,0,0,10.9,10.86c.25.16.49.34.72.47l.35.21.17.11c.05,0,.16.09,0,0a2.47,2.47,0,0,0-1.65-.1c-.28.09-.19.16.06,0a4.89,4.89,0,0,0,1-.66,21,21,0,0,0,2.44-2.46c.83-1,1.65-2,2.44-3.12,3.22-4.41,6.19-9.45,9.11-14.34l.05-.08a3.34,3.34,0,0,1,6.1,2.54,86.67,86.67,0,0,1-2.79,8.71,81.09,81.09,0,0,1-3.74,8.5,37.57,37.57,0,0,1-5.7,8.44,17.49,17.49,0,0,1-2.42,2.14,11.37,11.37,0,0,1-3.92,1.87,10,10,0,0,1-2.9.25,9.28,9.28,0,0,1-3.06-.75l-.46-.21-.31-.16-.62-.31c-.43-.2-.81-.42-1.2-.63a44.92,44.92,0,0,1-8.19-6,71.2,71.2,0,0,1-6.67-6.93,92,92,0,0,1-5.68-7.48q-1.32-1.92-2.55-3.9c-.41-.67-.83-1.33-1.22-2s-.76-1.33-1.2-2.15A6.69,6.69,0,0,1,163,197Z" style="fill:#FFCC35"></path><path d="M209.9,199l-1.61-4.2a2.53,2.53,0,0,0-3.44-1.41h0a9.82,9.82,0,0,0-4.5,4.61l-3,6.32.62,4.9c4.25.75,8.19-4.53,8.19-4.53l3.15-3A2.49,2.49,0,0,0,209.9,199Z" style="fill:#7f3e3b"></path><path d="M152,189.69a164.77,164.77,0,0,0-32.55-1.57,11.79,11.79,0,0,0-11.07,13.33c2.68,22.08,2.83,25.54,2.25,40.37l48.87,1c.27-16,5.06-27.59,2.9-42.54A12.67,12.67,0,0,0,152,189.69Z" style="fill:#263238"></path><path d="M143.09,188.69l-19.16-.54s.9,11.86,18.18,21C150.28,200.09,143.09,188.69,143.09,188.69Z" style="fill:#fff"></path><path d="M130.56,170.78c-.62,5.86-3.62,13.78-6.63,17.37,0,0,8,12.77,16.83,15.44,4.59-4.12,2.33-14.9,2.33-14.9-2.82-1.89-2.1-6-.33-9.47Z" style="fill:#7f3e3b"></path><path d="M132.79,172.32a13.55,13.55,0,0,0,.79,5.18c1,2.74,4.6,5.15,7.75,5.88a14.44,14.44,0,0,1,1.43-4.17Z" style="opacity:0.2"></path><path d="M124.73,160c2.44,10.09,3.26,14.4,9.32,18.86,9.1,6.72,20.87,1.89,21.47-8.63.54-9.47-3.55-24.37-14.19-26.94A13.62,13.62,0,0,0,124.73,160Z" style="fill:#7f3e3b"></path><path d="M137.86,160.81a5.47,5.47,0,0,0-4.17,0A10.89,10.89,0,0,0,137.86,160.81Z" style="opacity:0.2"></path><path d="M137.82,161.8a4.42,4.42,0,0,0-3.64.91A8.72,8.72,0,0,0,137.82,161.8Z" style="opacity:0.2"></path><path d="M146.14,141.25c8.76,7.27-12.08,20.31-19.11,23.75,0,0-6.45,4.19-9.31-5.06S133.36,130.63,146.14,141.25Z" style="fill:#e0e0e0"></path><path d="M140,160.87c.15.82.71,1.43,1.25,1.35s.86-.82.71-1.65-.71-1.43-1.25-1.35S139.87,160,140,160.87Z" style="fill:#263238"></path><path d="M150.58,159.33c.15.83.71,1.43,1.25,1.35s.85-.81.7-1.64-.7-1.44-1.24-1.36S150.43,158.5,150.58,159.33Z" style="fill:#263238"></path><path d="M151.06,157.76l1.88-.86S152.2,158.6,151.06,157.76Z" style="fill:#263238"></path><path d="M147.13,161.27a23.36,23.36,0,0,0,3.89,4.85,3.53,3.53,0,0,1-2.84,1Z" style="fill:#630f0f"></path><path d="M137.86,164.73a1.1,1.1,0,0,1-.68-.25,1.58,1.58,0,0,1-.56-1.12l-.21-2.65a.28.28,0,0,1,.25-.3.27.27,0,0,1,.3.25l.21,2.66a1.1,1.1,0,0,0,.35.73.54.54,0,0,0,.42.12l5.9-.95a1,1,0,0,0,.65-1.11l-.21-2.66c-.07-.89,2.94-1.14,3-1.14a5,5,0,0,1,.95,0c.39.06.6.21.62.46l.21,2.66a1,1,0,0,0,.35.72.53.53,0,0,0,.42.12l5.89-.94a1,1,0,0,0,.66-1.12l-.21-2.65a.27.27,0,0,1,.25-.3.28.28,0,0,1,.3.25l.21,2.66a1.55,1.55,0,0,1-1.12,1.71l-5.89.94a1.1,1.1,0,0,1-.85-.23,1.58,1.58,0,0,1-.56-1.12l-.21-2.58a6.76,6.76,0,0,0-3.43.57l.2,2.6a1.53,1.53,0,0,1-1.12,1.71l-5.89.94Z" style="fill:#fff"></path><path d="M145.71,170.57a8.64,8.64,0,0,0,1.4-.09.24.24,0,0,0,.2-.28A.26.26,0,0,0,147,170a6.82,6.82,0,0,1-5.78-1.77.25.25,0,0,0-.35,0,.24.24,0,0,0,0,.35A7.12,7.12,0,0,0,145.71,170.57Z" style="fill:#263238"></path><path d="M122.78,166.34a7.91,7.91,0,0,0,4.32,3.95c2.51.92,3.9-1.24,3.32-3.69-.52-2.2-2.46-5.34-5-5.2S121.73,164.11,122.78,166.34Z" style="fill:#7f3e3b"></path><path d="M137,156a.47.47,0,0,0,.32-.21,3.77,3.77,0,0,1,3-1.79.48.48,0,0,0,.49-.49.51.51,0,0,0-.5-.5,4.75,4.75,0,0,0-3.84,2.23.49.49,0,0,0,.15.68A.52.52,0,0,0,137,156Z" style="fill:#e0e0e0"></path><path d="M153.62,154a.48.48,0,0,0,.32-.18.49.49,0,0,0-.08-.69,4.85,4.85,0,0,0-4.36-1.1.49.49,0,0,0-.31.62.5.5,0,0,0,.62.33,3.86,3.86,0,0,1,3.44.9A.49.49,0,0,0,153.62,154Z" style="fill:#e0e0e0"></path><path d="M140.49,159.3l1.88-.87S141.63,160.14,140.49,159.3Z" style="fill:#263238"></path><path d="M139.88,250.12s-5.58,35.23-13.41,81.34c-11.84,45.64-13.65,79-13.65,79h-7.26s-10.17-53.88.39-80.62c-1.55-34.31,5.93-78.82,5.93-78.82Z" style="fill:#7f3e3b"></path><path d="M113.41,408.82l-8.52.11a.47.47,0,0,0-.47.45l-.28,5.72a1.13,1.13,0,0,0,1.12,1.13c2.51-.08,3.07-.16,6.24-.21,3.7,0,4.67.28,9,.21,2.62,0,2.89-2.72,1.75-2.94-5.19-1-4.84-2.27-7.23-4A2.7,2.7,0,0,0,113.41,408.82Z" style="fill:#263238"></path><path d="M153,408.82l-8.51.11a.4.4,0,0,0-.41.45l.38,5.72a1.3,1.3,0,0,0,1.25,1.13c2.5-.08,3-.16,6.21-.21,3.7,0,6.45.28,10.79.21,2.62,0,2.58-2.72,1.41-2.94-5.31-1-4.34-1.39-9.43-4A3.65,3.65,0,0,0,153,408.82Z" style="fill:#263238"></path><path d="M159.46,242.77c9.18,26.42-.3,46.88-2.7,97.52-18.2,2.75-39,2.58-55.86-1.55,10.31-58.11-.21-72.34,9.69-96.92Z" style="fill:#FFCC35"></path><path d="M159.46,242.77c9.18,26.42-.3,46.88-2.7,97.52-18.2,2.75-39,2.58-55.86-1.55,10.31-58.11-.21-72.34,9.69-96.92Z" style="fill:#fff;opacity:0.5"></path><polygon points="136.27 306.76 137.02 281.24 145.45 269.11 136.27 306.76" style="opacity:0.2"></polygon><path d="M122.78,188.46a2,2,0,0,0-2-1.29c-9.44.6-16.37,7.68-16.15,18.75.23,11.57,1.84,39,.07,47.56,8.55,5,22.72,2.55,22.72,2.55S127.24,199.54,122.78,188.46Z" style="fill:#FFCC35"></path><path d="M119.23,201.26c-3.15,3.9-6.45,8-9.43,12.1-1.5,2-2.92,4.1-4.21,6.13-.65,1-1.23,2-1.74,3a19.83,19.83,0,0,0-1.23,2.66,12,12,0,0,0-.25,5.24,52,52,0,0,0,1.45,7c1.29,4.8,3.12,9.76,4.91,14.55l0,.13a3.34,3.34,0,0,1-5.75,3.24,68.73,68.73,0,0,1-4.77-6.92,72.71,72.71,0,0,1-4-7.46,49.38,49.38,0,0,1-3-8.36,28.34,28.34,0,0,1-.82-4.85,20.8,20.8,0,0,1,0-2.75c0-.44.1-1,.17-1.56s.19-1,.29-1.47a31,31,0,0,1,1.64-4.81c.63-1.44,1.3-2.78,2-4.07,1.38-2.6,2.9-5,4.45-7.33s3.2-4.58,4.88-6.77,3.4-4.29,5.31-6.45a6.69,6.69,0,0,1,10.21,8.64Z" style="fill:#FFCC35"></path><path d="M106.41,250.24,116,254l-9.32,4.92a16.31,16.31,0,0,1-4.07-3.8,3.21,3.21,0,0,1,1.73-4.94h0A3.24,3.24,0,0,1,106.41,250.24Z" style="fill:#7f3e3b"></path><path d="M117.83,260.61l-4,2.93a2.47,2.47,0,0,1-3.29-.35l-3.85-4.3L116,254l2.32,4.21A1.88,1.88,0,0,1,117.83,260.61Z" style="fill:#7f3e3b"></path><path d="M145.38,189.33a.69.69,0,0,1,.58-1.13c9.51.5,18.53,5.18,19,16.1.48,11.57,1.26,40.63.78,50-3.45,4.16-13.06,1.75-13.06,1.75S154.71,201.17,145.38,189.33Z" style="fill:#FFCC35"></path></g><g id="freepik--character-2--inject-419"><path d="M338.14,106.27a8.87,8.87,0,0,0,3.22,5.4c2.13,1.55,3.79-.69,3.7-3.64-.08-2.66-1.28-6.66-3.65-7S337.58,103.48,338.14,106.27Z" style="fill:#b55b52"></path><path d="M338.14,106.27a8.87,8.87,0,0,0,3.22,5.4c2.13,1.55,3.79-.69,3.7-3.64-.08-2.66-1.28-6.66-3.65-7S337.58,103.48,338.14,106.27Z" style="opacity:0.2"></path><polygon points="363.97 408.33 354.52 408.18 352.59 386.25 362.04 386.4 363.97 408.33" style="fill:#b55b52"></polygon><path d="M354,405.32l10.33.16a.84.84,0,0,1,.8.66l1.87,8.44a1.36,1.36,0,0,1-1.36,1.66c-3.73-.12-9.11-.43-13.8-.5-5.47-.09-4.91.14-11.33,0-3.89-.06-5-4-3.34-4.33,7.4-1.51,8.16-1.59,14.55-5.43A4.42,4.42,0,0,1,354,405.32Z" style="fill:#263238"></path><polygon points="352.59 386.25 353.58 397.56 363.04 397.71 362.05 386.4 352.59 386.25" style="opacity:0.2"></polygon><path d="M352.35,406.16a.17.17,0,0,0,.13-.17.23.23,0,0,0-.14-.23c-.45-.23-4.45-2.22-5.53-1.6a.64.64,0,0,0-.32.59h0a1.41,1.41,0,0,0,.53,1.1c1.13.93,3.81.6,5.3.32Zm-5.21-1.64c.69-.23,2.83.58,4.4,1.32-2.05.32-3.62.2-4.25-.32a.92.92,0,0,1-.35-.73.25.25,0,0,1,.12-.23Z" style="fill:#FFCC35"></path><path d="M352.35,406.17l.06,0a.21.21,0,0,0,.07-.21c0-.1-.53-2.65-1.83-3.66a1.77,1.77,0,0,0-1.28-.4h0c-.61.05-.76.36-.77.61-.07,1.07,2.39,3.15,3.59,3.68A.29.29,0,0,0,352.35,406.17Zm-3.12-3.82.23,0h0a1.3,1.3,0,0,1,.94.3,6,6,0,0,1,1.54,2.94c-1.24-.72-2.93-2.35-2.89-3C349.05,402.52,349.06,402.42,349.23,402.35Zm.19-.26h0Z" style="fill:#FFCC35"></path><path d="M363,304.54c8.43-48.27,18.56-60.74,12.68-84.68l-33.31.4s-9.47,57.18-4.85,85.49c4.79,29.44,12.62,85,12.62,85l15.23.22S370.81,337.42,363,304.54Z" style="fill:#263238"></path><path d="M363,304.54c8.43-48.27,18.56-60.74,12.68-84.68l-33.31.4s-9.47,57.18-4.85,85.49c4.79,29.44,12.62,85,12.62,85l15.23.22S370.81,337.42,363,304.54Z" style="fill:#fff;opacity:0.1"></path><polygon points="347.62 387.37 349.31 393.89 366.07 394.19 366.35 388.03 347.62 387.37" style="fill:#263238"></polygon><polygon points="414.68 408.33 405.21 408.18 401.01 386.25 410.48 386.4 414.68 408.33" style="fill:#b55b52"></polygon><path d="M404.39,405.32l10.32.16a.77.77,0,0,1,.76.66l1.31,8.44a1.45,1.45,0,0,1-1.46,1.66c-3.72-.12-4.9-.43-9.58-.5-5.47-.09-2.94.14-9.35,0-3.88-.06-4.7-4-3.05-4.33,5.19-1.1,6.47-3.2,8.73-5.43A3.23,3.23,0,0,1,404.39,405.32Z" style="fill:#263238"></path><polygon points="401.01 386.25 403.18 397.56 412.65 397.71 410.49 386.4 401.01 386.25" style="opacity:0.2"></polygon><path d="M406.3,406a.2.2,0,0,0,.19-.12.2.2,0,0,0,0-.25c-.34-.37-3.35-3.53-4.64-3.34a.67.67,0,0,0-.54.42h0a1.25,1.25,0,0,0,.06,1.16c.7,1.23,3.39,1.85,4.93,2.12ZM402,402.77c.76,0,2.47,1.5,3.67,2.7-2.09-.42-3.54-1.06-3.94-1.75a.87.87,0,0,1,0-.77.27.27,0,0,1,.21-.18Z" style="fill:#FFCC35"></path><path d="M406.3,406h.06a.2.2,0,0,0,.15-.16c0-.1.58-2.57-.26-3.92a1.74,1.74,0,0,0-1.06-.8h0c-.6-.17-.87.06-1,.28-.5.94,1,3.66,1.94,4.54A.24.24,0,0,0,406.3,406Zm-1.44-4.5a.8.8,0,0,1,.24,0h0a1.26,1.26,0,0,1,.77.59,5.27,5.27,0,0,1,.28,3.17c-.89-1.07-1.85-3.12-1.55-3.68C404.62,401.62,404.67,401.53,404.86,401.54Zm.28-.18Z" style="fill:#FFCC35"></path><path d="M397,304.54c2.8-48.27,8.26-61.27-.42-85.22l-34.71.94s1.87,57.18,9.79,85.49c8.23,29.44,26.81,85,26.81,85l15.26.22S408.62,337.42,397,304.54Z" style="fill:#263238"></path><path d="M397,304.54c2.8-48.27,8.26-61.27-.42-85.22l-34.71.94s1.87,57.18,9.79,85.49c8.23,29.44,26.81,85,26.81,85l15.26.22S408.62,337.42,397,304.54Z" style="fill:#fff;opacity:0.2"></path><polygon points="396.07 387.37 397.39 393.89 414.5 394.19 415.16 388.03 396.07 387.37" style="fill:#263238"></polygon><path d="M344.27,148.25c-2.39,2.53-4.82,4.86-7.28,7.25s-5,4.67-7.57,6.92-5.21,4.49-8,6.65a97.15,97.15,0,0,1-8.79,6.25l-.34.22a2,2,0,0,1-.29.15,17,17,0,0,1-6.57,1.6,28.16,28.16,0,0,1-5.55-.34,46.87,46.87,0,0,1-9.45-2.67,78.54,78.54,0,0,1-16.16-8.72,3.58,3.58,0,0,1,3.22-6.31l.14.05c2.59.88,5.33,1.8,8,2.59s5.34,1.53,8,2.08a43.31,43.31,0,0,0,7.56,1,14.59,14.59,0,0,0,3.14-.19,4.31,4.31,0,0,0,1.8-.64l-.63.37c2.36-1.75,4.78-3.87,7.19-6s4.79-4.38,7.17-6.64l7.12-6.85L334,138.2h0a7.17,7.17,0,0,1,10.22,10.06Z" style="fill:#b55b52"></path><path d="M279.56,160.61l-7.62-7.4L268,164s6.49,6.19,10.45,2.35Z" style="fill:#b55b52"></path><path d="M264.7,153.56l-2.27,4.18a3,3,0,0,0,1.29,4.12L268,164l3.94-10.78-3.77-1.09A3,3,0,0,0,264.7,153.56Z" style="fill:#b55b52"></path><path d="M346.79,129.39c-10.79,1.52-21.42,15.91-21.42,15.91l8,22.32s9-4.77,13.53-12.41C348.46,152.52,357.76,127.85,346.79,129.39Z" style="fill:#FFCC35"></path><path d="M346.79,129.39a111.26,111.26,0,0,1,31.73-1.65,13.53,13.53,0,0,1,12.18,10.38c3.13,13.35,8.49,39.71,6.64,81.74-4.83,2-19.47,3.2-31.18,3.38-1.27,0-4.62-2.67-4.62-2.67s-2.58,2.66-4.2,2.61c-7.79-.25-14-1-15.59-2.44-2.16-8.85-3.75-35.22-.6-44.1-.8-10.27-3.83-21.63-5-32.62A13.52,13.52,0,0,1,346.79,129.39Z" style="fill:#FFCC35"></path><path d="M364.21,110.59c.94,7,2.38,15.19,7.35,19.18a14.9,14.9,0,0,1-13.36,9.57c-7.52.39-6.36-5.62-5.12-8.8,3.2-3.59,1.66-7.58.86-10.42Z" style="fill:#b55b52"></path><path d="M362.13,114c-.05-.44-.12-.89-.19-1.33l-8,7.44a17.13,17.13,0,0,1,1.06,6C359,123.47,362.61,118.29,362.13,114Z" style="opacity:0.2"></path><path d="M344,107.42c4.24,2.85,6.51,2.88,6.51,2.88s-2.91-5.79-1.44-8.27,4.45-3.37,5.44-6.63-.19-7.16-5.51-6.69-7.54,2.74-8.3,7.41a39.23,39.23,0,0,0,.1,7A8.09,8.09,0,0,0,344,107.42Z" style="fill:#263238"></path><path d="M366.84,100.36c-1.18,9.3-1.4,14.81-6.44,19.25-7.57,6.69-18.83,1.55-20.45-7.94-1.46-8.54.72-22.31,10.12-25.35A12.91,12.91,0,0,1,366.84,100.36Z" style="fill:#b55b52"></path><path d="M346.37,112.86a10.13,10.13,0,0,1-1.58-.19.28.28,0,0,1-.22-.33.27.27,0,0,1,.33-.21,7.44,7.44,0,0,0,6.56-1.63.28.28,0,0,1,.39.39A7.67,7.67,0,0,1,346.37,112.86Z" style="fill:#263238"></path><path d="M364.37,109.23c-5,1.11-7.11.31-7.11.31s4.82-4.33,4.35-7.17-2.92-4.77-2.65-8.16,3-5.82,7.73-3.45,5.88,7.16,4.87,9.15-2.63,6.46-2.63,6.46A8.14,8.14,0,0,1,364.37,109.23Z" style="fill:#263238"></path><path d="M361.89,91.72a.5.5,0,0,1-.47-.32c-.34-.93-1.8-1.91-3.91-2.62-3.45-1.17-8.47-1.55-11,0A.5.5,0,1,1,346,88c2.8-1.78,8.07-1.42,11.83-.15,1.42.48,3.91,1.54,4.53,3.22a.5.5,0,0,1-.3.64A.47.47,0,0,1,361.89,91.72Z" style="fill:#263238"></path><path d="M365.24,91.28a.49.49,0,0,1-.46-.3c-.8-1.82-3-3.57-5.86-4.55-3.22-1.13-6.54-1.08-8.87.14a.5.5,0,1,1-.46-.89c2.57-1.34,6.19-1.42,9.66-.2,3.11,1.09,5.52,3,6.44,5.1a.5.5,0,0,1-.25.66A.79.79,0,0,1,365.24,91.28Z" style="fill:#263238"></path><path d="M354.31,101.58a5.1,5.1,0,0,1,3.89-.29A10.1,10.1,0,0,1,354.31,101.58Z" style="opacity:0.2"></path><path d="M354.44,102.5a4.19,4.19,0,0,1,3.48.63A8.3,8.3,0,0,1,354.44,102.5Z" style="opacity:0.2"></path><path d="M371.13,109.12a8.83,8.83,0,0,1-5.29,4.26c-3,.85-4.54-1.84-3.74-4.68.73-2.56,3.16-6.09,6.2-5.68S372.48,106.58,371.13,109.12Z" style="fill:#b55b52"></path><path d="M352,102.23c-.05.76-.49,1.35-1,1.31s-.86-.68-.81-1.44.49-1.35,1-1.31S352,101.47,352,102.23Z" style="fill:#263238"></path><path d="M342.44,101.82c-.05.76-.49,1.35-1,1.31s-.86-.68-.81-1.44.49-1.35,1-1.31S342.49,101.06,342.44,101.82Z" style="fill:#263238"></path><path d="M345.2,102.79s-2.27,4.13-4.43,6c1.18,1.43,3.52,1.17,3.52,1.17Z" style="fill:#a02724"></path><path d="M353.74,99.27a.37.37,0,0,0,.21-.1.66.66,0,0,0,.13-.79c-1.37-2.68-3.46-2.72-3.55-2.72a.59.59,0,0,0,0,1.15h0A3.52,3.52,0,0,1,353.33,99,.44.44,0,0,0,353.74,99.27Z" style="fill:#263238"></path><path d="M339.82,99a.43.43,0,0,0,.36-.29,3.57,3.57,0,0,1,2.67-2.37.54.54,0,0,0,.42-.61c0-.31-.23-.55-.48-.53-.09,0-2.17.18-3.4,2.94a.69.69,0,0,0,.17.79A.41.41,0,0,0,339.82,99Z" style="fill:#263238"></path><path d="M391.12,137.45c.95,1.87,1.74,3.54,2.52,5.33s1.52,3.53,2.24,5.31c1.42,3.56,2.72,7.19,3.86,10.89.56,1.86,1.1,3.73,1.6,5.61s.92,3.81,1.31,5.74a76.6,76.6,0,0,1,1.52,12l0,.42a5.55,5.55,0,0,1-.44,2.38,18.1,18.1,0,0,1-3.17,5,30,30,0,0,1-3.62,3.4,46.89,46.89,0,0,1-7.5,4.75,73.08,73.08,0,0,1-7.71,3.35,68.57,68.57,0,0,1-8,2.4,3.58,3.58,0,0,1-2.69-6.54l.15-.09c2.09-1.28,4.33-2.64,6.42-4s4.17-2.79,6.1-4.27a42.81,42.81,0,0,0,5.2-4.54,10.69,10.69,0,0,0,2.71-4.05l-.42,2.8a75.88,75.88,0,0,0-1.94-9.88c-.88-3.33-1.93-6.66-3.07-10s-2.43-6.63-3.77-9.91c-.66-1.64-1.35-3.28-2.06-4.9l-1.08-2.42-1-2.32-.08-.19a7.16,7.16,0,0,1,12.91-6.21Z" style="fill:#b55b52"></path><path d="M379.71,127.89c15.73,1.71,20.51,23.28,20.51,23.28l-14.91,14.64A89,89,0,0,1,374,149.38C370.25,142.24,368.7,126.69,379.71,127.89Z" style="fill:#FFCC35"></path><path d="M368.92,126.28c.22,2.16-2.36,9.81-11.39,13.08,3.48,0,7.24,3.93,7.24,3.93s9.75-7.3,8.32-15C372.66,126.25,368.92,126.28,368.92,126.28Z" style="fill:#fff"></path><path d="M354.73,126.87c.22,2.11-2.23,6.55,2.8,12.49-3.49,0-6.92,2.88-6.92,2.88a15.66,15.66,0,0,1,.35-13.63A7,7,0,0,1,354.73,126.87Z" style="fill:#fff"></path><path d="M362.68,158.7l-90.49,1.91-89.44-13.83a4.56,4.56,0,0,0-5.35,4.27l-7.61,114.84a5.64,5.64,0,0,0,4.68,5.82l89.45,13.83,90.48-1.91a5.64,5.64,0,0,0,5.41-5.15l7.6-114.85A4.55,4.55,0,0,0,362.68,158.7Z" style="fill:#263238"></path><path d="M355.69,160.69l-83.56,1.77-82.61-12.77a4.54,4.54,0,0,0-5.34,4.26L177,262a5.63,5.63,0,0,0,4.68,5.82l82.6,12.77,83.56-1.77a5.63,5.63,0,0,0,5.41-5.15l7.16-108A4.56,4.56,0,0,0,355.69,160.69Z" style="fill:#fff"></path><polygon points="264.85 180.45 189.28 168.76 189.52 165.19 265.08 176.88 264.85 180.45" style="fill:#e0e0e0"></polygon><polygon points="263.92 194.43 188.35 182.74 188.59 179.17 264.16 190.85 263.92 194.43" style="fill:#e0e0e0"></polygon><polygon points="263 208.41 187.43 196.72 187.67 193.15 263.23 204.83 263 208.41" style="fill:#e0e0e0"></polygon><polygon points="262.07 222.38 186.5 210.7 186.74 207.13 262.31 218.81 262.07 222.38" style="fill:#e0e0e0"></polygon><polygon points="212.99 230.49 185.42 226.22 185.66 222.65 213.22 226.91 212.99 230.49" style="fill:#e0e0e0"></polygon><polygon points="212.06 244.46 184.49 240.2 184.73 236.63 212.3 240.89 212.06 244.46" style="fill:#e0e0e0"></polygon><polygon points="211.13 258.44 183.57 254.18 183.8 250.61 211.37 254.87 211.13 258.44" style="fill:#e0e0e0"></polygon><path d="M256.52,263.89l-36-5.57a3.11,3.11,0,0,1-2.59-3.21l1.72-26a2.52,2.52,0,0,1,3-2.36l36,5.57a3.12,3.12,0,0,1,2.59,3.21l-1.72,26A2.52,2.52,0,0,1,256.52,263.89Z" style="fill:#FFCC35"></path><polygon points="271.65 261.55 348.09 259.93 347.86 263.51 271.41 265.12 271.65 261.55" style="fill:#e0e0e0"></polygon><polygon points="272.57 247.57 349.02 245.96 348.78 249.53 272.34 251.14 272.57 247.57" style="fill:#e0e0e0"></polygon><polygon points="273.5 233.59 349.95 231.98 349.71 235.55 273.26 237.16 273.5 233.59" style="fill:#e0e0e0"></polygon><polygon points="274.43 219.61 350.87 218 350.64 221.57 274.19 223.19 274.43 219.61" style="fill:#e0e0e0"></polygon><polygon points="313.57 204.83 275.35 205.64 275.11 209.21 313.34 208.4 313.57 204.83" style="fill:#e0e0e0"></polygon><polygon points="314.5 190.85 276.28 191.66 276.04 195.23 314.26 194.42 314.5 190.85" style="fill:#e0e0e0"></polygon><polygon points="353.65 176.06 277.2 177.68 276.97 181.25 353.41 179.64 353.65 176.06" style="fill:#e0e0e0"></polygon><path d="M350.64,190.09l-27.54.58a2.3,2.3,0,0,0-2.22,2.12l-.89,13.4a1.88,1.88,0,0,0,1.95,2l27.53-.58a2.33,2.33,0,0,0,2.23-2.12l.89-13.4A1.87,1.87,0,0,0,350.64,190.09Z" style="fill:#FFCC35"></path><path d="M376.43,196.55l-9.56-.42,2.72,11.15s8.7-.67,9.1-5.35Z" style="fill:#b55b52"></path><path d="M359.48,202.78l1.62,3.75a3.31,3.31,0,0,0,3.84,1.9l4.65-1.15-2.72-11.15-5.59,2.27A3.31,3.31,0,0,0,359.48,202.78Z" style="fill:#b55b52"></path></g></svg>