<svg height="667.07575" viewBox="0 0 799 667.07575" width="799" xmlns="http://www.w3.org/2000/svg"><path d="m849.5 746.61987h-485l.21874-51.42174c.55348-130.11522 104.40844-237.32948 234.506-239.54236q2.10824-.03587 4.22346-.0359h.0004a245.33553 245.33553 0 0 1 85.75247 15.40589c92.054 34.28252 153.84089 121.38358 157.951 219.52807z" fill="#334ff7" transform="translate(-200.5 -116.46212)"/><path d="m0 630.15774h799v2h-799z" fill="#2f2e41"/><path d="m398.287 400.165 21.37 15.543 21.371 182.622h50.512l-17.485-207.879-69.94-27.199z" fill="#2f2e41"/><path d="m509.4184 458.34384s-5.82836 66.05475 17.48508 67.99754 112.68163-19.42787 112.68163-19.42787l42.74131 151.53736 64.112-33.02737s-38.85573-170.96523-62.16917-180.67916-101.02491-29.1418-101.02491-29.1418l-56.34082 9.71393z" fill="#2f2e41" transform="translate(-200.5 -116.46212)"/><path d="m649.29905 710.90611s-11.65673 44.68409-3.88558 48.56967a140.53483 140.53483 0 0 1 13.59951 7.77114v-7.77114s9.71393 9.71393 9.71393 17.48508 52.45524 9.71393 52.45524 0-1.94278-21.37066-11.65672-27.199-21.37065-38.85573-21.37065-38.85573z" fill="#2f2e41" transform="translate(-200.5 -116.46212)"/><path d="m505.14 514.79 3.885 36.913 13.6 23.313 33.027-36.913-25.256-40.798z" fill="#2f2e41"/><path d="m736.72445 668.1648s7.15372-24.46025 14.26219-21.94406 34.30747 27.77242 34.30747 27.77242l19.42789 11.65672s38.85573 3.88558 27.199 15.5423-54.398 27.199-73.82589 19.42786-23.31344-9.71393-23.31344-9.71393l-5.82836 3.88557-23.31344-5.82836 3.88557-40.79852s5.82835 17.48508 27.19901 0z" fill="#2f2e41" transform="translate(-200.5 -116.46212)"/><circle cx="374.97315" cy="54.34929" fill="#9f616a" r="44.68409"/><path d="m547.30274 197.039s3.88558 40.79852-7.77114 40.79852 1.94278 50.51248 33.0274 50.51248 42.74131-60.22639 42.74131-60.22639-21.37066-7.77115-17.48508-33.02737-50.51249 1.94276-50.51249 1.94276z" fill="#9f616a" transform="translate(-200.5 -116.46212)"/><path d="m544.20687 234.72539-16.332 6.99774-44.32477 18.75279a8.99955 8.99955 0 0 0 -5.43656 9.29441l16.734 148.74639s-17.48508 36.91294 9.71394 38.85573l3.88552 13.59955 31.08459-36.913 116.5672-3.88557 1.94279-188.45031-53.3357-21.07612s-7.25407 40.108-60.49901 14.07839z" fill="#3f3d56" transform="translate(-200.5 -116.46212)"/><path d="m489.99054 266.008-7.17945-2.05127a5.919 5.919 0 0 0 -7.47123 4.7594l-19.05186 119.50734a41.5016 41.5016 0 0 0 4.05469 25.91676c5.8867 11.14588 18.11259 21.25444 43.24739 9.23345l17.48508-126.28113z" fill="#3f3d56" transform="translate(-200.5 -116.46212)"/><path d="m635.69954 238.809 23.31344 3.88557 64.112 89.36819 5.82832 15.54224 36.913-11.65672s-1.94279 17.48508 17.48508 15.5423c0 0-23.31344 64.112-71.88311 44.68409s-64.112-77.71147-64.112-77.71147z" fill="#3f3d56" transform="translate(-200.5 -116.46212)"/><path d="m462.399 161.203-87.426-34.971-3.885 11.657 40.798 34.97z" fill="#ccc"/><path d="m548.56969 173.66c1.65033-.44064 1.89277-2.63175 1.94808-4.339.29622-9.14249 5.80151-18.52371 14.553-21.18523a24.46655 24.46655 0 0 1 10.313-.5675 39.06274 39.06274 0 0 1 13.96661 4.65951c2.27932 1.28145 4.51509 2.82482 7.10047 3.21626 1.70747.25852 9.10059 2.40806 10.80081 2.71057 3.7381.66508 7.2121 4.00959 10.79913 2.765 3.43173-1.19068 4.19139-5.634 4.27434-9.26547.189-8.27324-6.09157-19.72372-11.62353-25.87838-4.198-4.67054-10.519-6.82653-16.698-7.9476a111.168 111.168 0 0 0 -21.83787-1.32849c-9.88858.17636-20.05125.93961-28.968 5.21828s-16.40657 12.79425-16.834 22.67516c-.089 2.05828.1233 4.12515-.04976 6.17808-.42218 5.00809-3.08153 9.5316-4.329 14.40017a26.35017 26.35017 0 0 0 3.67977 21.05747c3.30926 4.87005 16.54275 9.29112 16.35142 15.176 2.39183-2.478-3.24866-4.97242-.85683-7.45041a5.89248 5.89248 0 0 0 1.75244-7.19911l-2.53985-9.90672c-.46505-1.814-.92235-3.77752-.21992-5.51327 2.72285-6.72807 5.66607 3.25937 8.41769 2.52468z" fill="#2f2e41" transform="translate(-200.5 -116.46212)"/><path d="m371.088 137.889-36.913 143.766 143.766 50.513 83.54-69.941 52.455-157.365-85.483 62.169z" fill="#f2f2f2"/><g fill="#e6e6e6"><path d="m647.35642 216.98683h1.94246v144.66914h-1.94246z" transform="matrix(.25515433 -.96690034 .96690034 .25515433 2.65912 725.90593)"/><path d="m643.47085 226.70077h1.94246v144.66914h-1.94246z" transform="matrix(.25515433 -.96690034 .96690034 .25515433 -9.62744 729.38435)"/><path d="m641.52806 236.4147h1.94246v144.66914h-1.94246z" transform="matrix(.25515433 -.96690034 .96690034 .25515433 -20.46692 734.74125)"/><path d="m639.58528 246.12863h1.94246v144.66914h-1.94246z" transform="matrix(.25515433 -.96690034 .96690034 .25515433 -31.3064 740.09815)"/><path d="m637.64249 255.84257h1.94246v144.66914h-1.94246z" transform="matrix(.25515433 -.96690034 .96690034 .25515433 -42.14588 745.45505)"/><path d="m635.6997 265.5565h1.94246v144.66914h-1.94246z" transform="matrix(.25515433 -.96690034 .96690034 .25515433 -52.98536 750.81195)"/><path d="m633.75692 275.27043h1.94246v144.66914h-1.94246z" transform="matrix(.25515433 -.96690034 .96690034 .25515433 -63.82485 756.16885)"/><path d="m631.81413 284.98437h1.94246v144.66914h-1.94246z" transform="matrix(.25515433 -.96690034 .96690034 .25515433 -74.66433 761.52575)"/><path d="m629.87134 294.6983h1.94246v144.66914h-1.94246z" transform="matrix(.25515433 -.96690034 .96690034 .25515433 -85.50381 766.88265)"/></g><path d="m512.35043 360.10426s43.69485-26.09876 63.12272-8.61368-56.34081 42.7413-56.34081 42.7413z" fill="#9f616a" transform="translate(-200.5 -116.46212)"/><path d="m464.73431 372.86123 56.34081-21.37065s-9.71393 36.91294 9.71394 38.85573l-27.19906 33.02737s-54.398 0-38.85569-50.51245z" fill="#3f3d56" transform="translate(-200.5 -116.46212)"/><path d="m412.494 255.602 74.761 25.197-17.693 38.566-74.761-25.196z" fill="#e6e6e6"/><path d="m544.967 173.831 56.341-42.742-15.542 52.456-58.284 42.741z" fill="#ccc"/><path d="m711.07913 339.83365h70.7185v1.9432h-70.7185z" fill="#e6e6e6" transform="matrix(.79670748 -.60436512 .60436512 .79670748 -254.72546 403.94235)"/><path d="m707.19355 361.2043h70.7185v1.9432h-70.7185z" fill="#e6e6e6" transform="matrix(.79670748 -.60436512 .60436512 .79670748 -268.43105 405.93854)"/><path d="m777.523 353.43336s48.56966-29.1418 17.48508-40.79852-31.08459 33.02738-31.08459 33.02738-1.94282 9.71393 13.59951 7.77114z" fill="#9f616a" transform="translate(-200.5 -116.46212)"/><path d="m292.405 171.888-1.943 75.769 30.113-8.594-24.285.822z" opacity=".1"/><path d="m280.90863 712.35433c6.07317 22.45006 26.87512 36.35395 26.87512 36.35395s10.95541-22.49485 4.88225-44.94491-26.87512-36.354-26.87512-36.354-10.95541 22.4949-4.88225 44.94496z" fill="#8985a8" transform="translate(-200.5 -116.46212)"/><path d="m289.83272 707.52957c16.66484 16.22256 18.70033 41.1604 18.70033 41.1604s-24.98356-1.36411-41.64841-17.58667-18.70033-41.1604-18.70033-41.1604 24.98356 1.3641 41.64841 17.58667z" fill="#3f3d56" transform="translate(-200.5 -116.46212)"/><path d="m626 379.15774h30v30h-30z" fill="#f2f2f2"/><path d="m506 39.15774h30v30h-30z" fill="#f2f2f2"/><circle cx="159" cy="328.15774" fill="#f2f2f2" r="15"/></svg>